<?xml version="1.0" encoding="UTF-8"?>
<svg id="Graphic_Elements" data-name="Graphic Elements" xmlns="http://www.w3.org/2000/svg" viewBox="0 0 120 120">
  <defs>
    <style>
      .cls-1 {
        fill: #2a2d32;
        fill-rule: evenodd;
        stroke-width: 0px;
      }
    </style>
  </defs>
  <path class="cls-1" d="m60.22,8.28C30.89,8.28,7.17,32.17,7.17,61.72c0,23.62,15.19,43.62,36.27,50.7,2.64.53,3.6-1.15,3.6-2.56,0-1.24-.09-5.49-.09-9.91-14.76,3.19-17.83-6.37-17.83-6.37-2.37-6.19-5.89-7.79-5.89-7.79-4.83-3.27.35-3.27.35-3.27,5.36.35,8.17,5.49,8.17,5.49,4.74,8.14,12.38,5.84,15.46,4.42.44-3.45,1.84-5.84,3.34-7.17-11.77-1.24-24.15-5.84-24.15-26.37,0-5.84,2.11-10.62,5.44-14.33-.53-1.33-2.37-6.81.53-14.16,0,0,4.48-1.42,14.58,5.49,4.32-1.17,8.78-1.76,13.26-1.77,4.48,0,9.04.62,13.26,1.77,10.1-6.9,14.58-5.49,14.58-5.49,2.9,7.34,1.05,12.83.53,14.16,3.43,3.72,5.45,8.49,5.45,14.33,0,20.53-12.38,25.04-24.24,26.37,1.93,1.68,3.6,4.87,3.6,9.91,0,7.17-.09,12.92-.09,14.69,0,1.42.97,3.1,3.6,2.57,21.08-7.08,36.27-27.07,36.27-50.7.09-29.55-23.71-53.44-52.96-53.44Z"/>
</svg>