<?xml version="1.0" encoding="UTF-8"?>
<svg id="Graphic_Elements" data-name="Graphic Elements" xmlns="http://www.w3.org/2000/svg" viewBox="0 0 120 120">
  <defs>
    <style>
      .cls-1, .cls-2 {
        stroke-width: 0px;
      }

      .cls-2 {
        fill: #fff;
      }
    </style>
  </defs>
  <circle class="cls-1" cx="60" cy="61.01" r="52.22"/>
  <g>
    <path class="cls-2" d="m86.63,84.89l-19.65-28.55-2.22-3.23-14.06-20.42-1.17-1.69h-17.27l4.21,6.12,18.69,27.16,2.22,3.23,15.02,21.82,1.17,1.69h17.27l-4.21-6.12Zm-11.01,2.21l-15.6-22.67-2.22-3.23-18.1-26.3h7.79l14.64,21.27,2.22,3.23,19.07,27.7h-7.79Z"/>
    <polygon class="cls-2" points="57.8 61.21 60.02 64.44 57.38 67.5 37.18 91.01 32.19 91.01 55.16 64.28 57.8 61.21"/>
    <polygon class="cls-2" points="88.76 31 66.98 56.34 64.34 59.41 62.12 56.18 64.75 53.12 79.51 35.94 83.78 31 88.76 31"/>
  </g>
</svg>