<?xml version="1.0" encoding="UTF-8"?>
<svg id="Graphic_Elements" data-name="Graphic Elements" xmlns="http://www.w3.org/2000/svg" viewBox="0 0 120 120">
  <defs>
    <style>
      .cls-1 {
        fill: #cb1c54;
      }

      .cls-1, .cls-2, .cls-3, .cls-4 {
        stroke-width: 0px;
      }

      .cls-2 {
        fill: #6abac5;
      }

      .cls-3 {
        fill: #fff;
      }

      .cls-4 {
        fill: #010201;
      }
    </style>
  </defs>
  <circle class="cls-4" cx="61" cy="60" r="51.72"/>
  <g>
    <path class="cls-3" d="m47.2,80.76c.06.06.12.11.19.17.57.41.99.99,1.53,1.43,1.7,1.37,3.61,2.11,5.81,2.24,5.2.32,9.73-3.59,10.31-8.73.03-.25.02-.5.02-.75,0-15.47,0-30.94,0-46.42q0-1.04,1.04-1.04c2.35,0,4.7,0,7.05,0,.22,0,.45-.04.65.1.01.01.03.02.04.03.11.12.15.27.18.42.9,4.17,3.1,7.5,6.54,10.01.21.16.4.35.6.52.15.13.3.25.45.38.56.32.95.82,1.43,1.22,1.9,1.59,4.05,2.68,6.45,3.3.21.05.45.05.61.25.01.01.02.02.04.03.14.15.12.34.12.52,0,2.73,0,5.46,0,8.18,0,.62-.08.66-.71.66-2,0-3.96-.27-5.9-.71-3.34-.76-6.42-2.12-9.28-4-.15-.1-.31-.31-.47-.24-.2.09-.1.35-.1.54,0,7.68.03,15.36-.02,23.04-.03,5.37-1.74,10.17-5.25,14.26-3.73,4.35-8.48,6.87-14.17,7.56-4.39.54-8.55-.26-12.5-2.21-.64-.32-1.25-.68-1.82-1.11-.18-.16-.36-.32-.54-.48-1.36-1.12-2.31-2.58-3.19-4.07-1.36-2.3-2.25-4.78-2.68-7.42-.25-1.51-.37-3.03-.29-4.55.27-4.92,1.92-9.31,5.09-13.1,2.66-3.18,5.98-5.41,9.9-6.74,1.63-.56,3.32-.9,5.05-1.03.32-.02.64-.1.96-.08.15,0,.31,0,.44.1.01.01.03.02.05.03.09.15.07.33.07.49,0,2.77,0,5.54,0,8.3,0,.1,0,.2,0,.29-.01.28-.15.37-.42.3-.76-.22-1.54-.31-2.32-.36-1.21-.06-2.41.11-3.54.53-3.81,1.4-6.11,4.13-6.6,8.14-.48,3.96,1.09,7.12,4.38,9.4.28.19.56.37.82.58Z"/>
    <path class="cls-1" d="m40.03,90.41c.15-.04.23.08.33.14,2.47,1.51,5.14,2.49,8,2.95,1.44.23,2.89.33,4.35.25,4.87-.25,9.22-1.87,12.99-4.98,3.63-3,6.04-6.78,7.24-11.33.38-1.44.59-2.9.67-4.38.04-.85.04-1.71.04-2.56,0-7.32,0-14.64,0-21.96v-.5c.19-.05.28.09.38.16,2.61,1.78,5.43,3.11,8.47,3.94,1.67.46,3.37.77,5.1.92.73.06,1.45.05,2.18.11.32.02.32.01.33-.32,0-.35,0-.7,0-1.05,0-2.48,0-4.95,0-7.43,0-.15,0-.31.01-.46.65.07,1.29.21,1.95.26.41.03.81.07,1.22.06.2,0,.29.06.26.27,0,.08,0,.17,0,.25v10.75c0,.07,0,.14,0,.21,0,.31,0,.32-.34.32-1.12,0-2.24-.08-3.35-.22-2.27-.3-4.47-.85-6.6-1.69-2.04-.8-3.96-1.81-5.77-3.05-.11-.08-.23-.15-.4-.26v.5c0,7.82,0,15.64,0,23.46,0,4.17-1.08,8.04-3.31,11.57-2.69,4.27-6.41,7.27-11.15,8.99-2.88,1.05-5.85,1.45-8.91,1.22-5.16-.38-9.62-2.35-13.42-5.84-.1-.09-.19-.2-.28-.31Z"/>
    <path class="cls-2" d="m73.8,27.75c-.15,0-.31.02-.46.02-2.52,0-5.04,0-7.56,0q-.58,0-.58.57c0,15.39,0,30.78,0,46.17,0,1.07-.08,2.12-.41,3.14-1.18,3.6-3.6,5.98-7.29,6.82-3.96.9-7.33-.3-10-3.38-.04-.05-.07-.12-.11-.17.77.3,1.53.61,2.34.77,2.58.51,5.02.12,7.26-1.27,2.59-1.6,4.12-3.93,4.65-6.91.1-.56.12-1.14.12-1.71,0-15.42,0-30.84,0-46.26,0-.72-.1-.63.62-.63,3.56,0,7.11,0,10.67,0,.08,0,.17,0,.25,0,.36,0,.37,0,.37.37,0,.82-.01,1.65.15,2.46Z"/>
    <path class="cls-2" d="m54.77,53.04c-2.17.07-4.3.42-6.36,1.1-2.98.99-5.63,2.55-7.95,4.68-3.03,2.8-5.1,6.19-6.23,10.15-.4,1.41-.64,2.86-.74,4.32-.06.88-.08,1.76-.03,2.64.13,2.44.64,4.81,1.56,7.07,1.04,2.54,2.49,4.8,4.38,6.79.04.04.06.09.09.14-.43-.18-.77-.5-1.13-.78-3.53-2.8-6.01-6.32-7.38-10.62-.48-1.49-.77-3.03-.92-4.59-.1-1.13-.12-2.27-.04-3.39.17-2.6.79-5.1,1.86-7.48,1.12-2.49,2.66-4.7,4.6-6.6,2.27-2.22,4.9-3.89,7.89-4.97,1.88-.68,3.81-1.08,5.8-1.23,1.44-.11,2.88-.07,4.31.1.19.02.31.06.3.29-.02.8-.01,1.59-.02,2.39Z"/>
    <path class="cls-1" d="m47.2,80.76c-.88-.4-1.63-.97-2.32-1.63-1.73-1.66-2.75-3.69-3.02-6.07-.56-4.99,2.59-9.3,6.96-10.64,1.87-.57,3.74-.59,5.62-.09.1.03.21.07.32.04.06-.15.03-.31.03-.46,0-2.8,0-5.6,0-8.39,0-.15.01-.31.02-.46,1.08-.07,2.15.02,3.22.14.17.02.21.1.21.24,0,.08,0,.17,0,.25,0,3.71,0,7.41,0,11.12,0,.14.04.28-.05.43-.49-.09-.97-.24-1.46-.31-2.86-.4-5.45.27-7.71,2.06-1.99,1.57-3.22,3.63-3.63,6.13-.44,2.65.11,5.11,1.64,7.34.06.09.12.19.18.28Z"/>
    <path class="cls-1" d="m81.16,38.73c-1.08-.64-2.02-1.44-2.89-2.34-2.33-2.4-3.8-5.24-4.43-8.53,0-.03,0-.06,0-.08,1.01-.06,2.01,0,3.02-.03.18,0,.26.07.24.25,0,.07,0,.14,0,.21-.05,2.82.79,5.39,2.16,7.82.49.87,1.08,1.67,1.72,2.43.07.08.17.15.18.27Z"/>
    <path class="cls-2" d="m90.09,43.88c-2.87-.61-5.39-1.9-7.58-3.85-.32-.29-.65-.57-.91-.92.11-.01.18.05.27.1,1.74.99,3.6,1.65,5.57,1.97.77.13,1.55.21,2.33.2.33,0,.33,0,.33.32,0,.72-.01,1.45-.02,2.17Z"/>
  </g>
</svg>