<?xml version="1.0" encoding="UTF-8"?>
<svg id="Graphic_Elements" data-name="Graphic Elements" xmlns="http://www.w3.org/2000/svg" viewBox="0 0 120 120">
  <defs>
    <style>
      .cls-1 {
        fill: #da0000;
      }

      .cls-1, .cls-2 {
        stroke-width: 0px;
      }

      .cls-2 {
        fill: #fff;
      }
    </style>
  </defs>
  <circle class="cls-1" cx="61.38" cy="60.61" r="52.33"/>
  <path class="cls-2" d="m94.81,43.82c-.8-3-3.17-5.37-6.17-6.17-5.44-1.46-27.26-1.46-27.26-1.46,0,0-21.82,0-27.26,1.46-3,.8-5.37,3.17-6.17,6.17-1.46,5.44-1.46,16.79-1.46,16.79,0,0,0,11.35,1.46,16.79.8,3,3.17,5.37,6.17,6.17,5.44,1.46,27.26,1.46,27.26,1.46,0,0,21.82,0,27.26-1.46,3-.8,5.37-3.17,6.17-6.17,1.46-5.44,1.46-16.79,1.46-16.79,0,0,0-11.35-1.46-16.79Zm-40.41,27.26v-20.93l18.13,10.47-18.13,10.47Z"/>
</svg>