<?xml version="1.0" encoding="UTF-8"?>
<svg id="Graphic_Elements" data-name="Graphic Elements" xmlns="http://www.w3.org/2000/svg" viewBox="0 0 120 120">
  <defs>
    <style>
      .cls-1 {
        fill: #4467ad;
      }

      .cls-1, .cls-2 {
        stroke-width: 0px;
      }

      .cls-2 {
        fill: #fefefe;
      }
    </style>
  </defs>
  <circle class="cls-1" cx="59.32" cy="60.58" r="51.93"/>
  <g>
    <path class="cls-2" d="m63.33,53.5c.85-.96,1.56-1.93,2.43-2.76,2.69-2.54,5.88-3.82,9.6-3.79,2.04.02,4.06.16,6.04.73,4.51,1.3,7.13,4.41,8.38,8.81.94,3.3,1.11,6.69,1.12,10.09.01,7.17-.02,14.35,0,21.52,0,.67-.19.85-.85.84-3.7-.03-7.39-.03-11.09,0-.65,0-.79-.2-.79-.81.02-6.83.03-13.65,0-20.48,0-1.71-.11-3.42-.59-5.08-.88-3.06-3.08-4.62-6.29-4.46-4.38.23-6.66,2.4-7.22,6.86-.13,1.06-.2,2.13-.2,3.2,0,6.64,0,13.28.02,19.92,0,.66-.16.86-.84.85-3.72-.03-7.45-.03-11.17,0-.6,0-.77-.16-.77-.76.02-13.14.02-26.29,0-39.43,0-.65.21-.8.83-.8,3.54.03,7.07.03,10.61,0,.65,0,.82.2.8.82-.04,1.57-.01,3.14-.01,4.71Z"/>
    <path class="cls-2" d="m43.09,68.52c0,6.5-.01,13,.02,19.51,0,.72-.18.94-.92.93-3.69-.04-7.39-.03-11.08,0-.59,0-.77-.14-.77-.76.02-13.17.02-26.33,0-39.5,0-.54.13-.74.71-.74,3.75.02,7.5.03,11.24,0,.72,0,.82.27.82.89-.02,6.56-.01,13.11-.01,19.67Z"/>
    <path class="cls-2" d="m44.1,34.92c0,4.08-3.31,7.41-7.38,7.41-4.02,0-7.36-3.33-7.38-7.35-.01-4.06,3.33-7.41,7.39-7.41,4.04,0,7.36,3.32,7.37,7.34Z"/>
  </g>
</svg>