<?xml version="1.0" encoding="UTF-8"?>
<svg id="Graphic_Elements" data-name="Graphic Elements" xmlns="http://www.w3.org/2000/svg" viewBox="0 0 120 120">
  <defs>
    <style>
      .cls-1 {
        fill: #4676ed;
      }

      .cls-1, .cls-2 {
        stroke-width: 0px;
      }

      .cls-2 {
        fill: #fff;
      }
    </style>
  </defs>
  <path class="cls-1" d="m111.72,60c0-28.57-23.16-51.72-51.72-51.72S8.28,31.43,8.28,60c0,25.82,18.91,47.21,43.64,51.09v-36.14h-13.13v-14.95h13.13v-11.4c0-12.96,7.72-20.12,19.54-20.12,5.66,0,11.58,1.01,11.58,1.01v12.73h-6.52c-6.43,0-8.43,3.99-8.43,8.08v9.7h14.34l-2.29,14.95h-12.05v36.14c24.73-3.88,43.64-25.28,43.64-51.09Z"/>
  <path class="cls-2" d="m80.13,74.95l2.29-14.95h-14.34v-9.7c0-4.09,2-8.08,8.43-8.08h6.52v-12.73s-5.92-1.01-11.58-1.01c-11.81,0-19.54,7.16-19.54,20.12v11.4h-13.13v14.95h13.13v36.14c2.63.41,5.33.63,8.08.63s5.45-.22,8.08-.63v-36.14h12.05Z"/>
</svg>