<?xml version="1.0" encoding="UTF-8"?>
<svg id="Capa_1" data-name="Capa 1" xmlns="http://www.w3.org/2000/svg" xmlns:xlink="http://www.w3.org/1999/xlink" viewBox="0 0 400 340.81">
  <defs>
    <style>
      .cls-1 {
        clip-path: url(#clippath);
      }

      .cls-2, .cls-3, .cls-4 {
        fill: none;
      }

      .cls-2, .cls-5, .cls-6, .cls-7, .cls-8, .cls-9, .cls-10, .cls-11, .cls-12, .cls-13, .cls-14, .cls-15, .cls-16, .cls-17, .cls-18 {
        stroke-width: 0px;
      }

      .cls-3, .cls-4 {
        stroke: #fff;
        stroke-linejoin: round;
        stroke-width: .55px;
      }

      .cls-19 {
        clip-path: url(#clippath-1);
      }

      .cls-5 {
        fill: url(#Degradado_sin_nombre_3);
      }

      .cls-6 {
        fill: url(#Degradado_sin_nombre_2);
      }

      .cls-7 {
        fill: url(#Degradado_sin_nombre);
      }

      .cls-20 {
        opacity: .3;
      }

      .cls-8 {
        fill: #24292f;
        fill-rule: evenodd;
      }

      .cls-10 {
        fill: #2b67af;
      }

      .cls-11 {
        fill: #6f519c;
      }

      .cls-12 {
        fill: #386db3;
      }

      .cls-13 {
        fill: #1bb5c2;
      }

      .cls-14 {
        fill: #1e293b;
      }

      .cls-15 {
        fill: #e51e57;
      }

      .cls-16 {
        fill: #e4231f;
      }

      .cls-17 {
        fill: #fdfdfd;
      }

      .cls-18 {
        fill: #fff;
      }

      .cls-4 {
        stroke-linecap: round;
      }
    </style>
    <clipPath id="clippath">
      <rect class="cls-2" x="3.24" y="-87.32" width="397.36" height="456.16"/>
    </clipPath>
    <linearGradient id="Degradado_sin_nombre" data-name="Degradado sin nombre" x1="9.49" y1="134.79" x2="443.42" y2="134.79" gradientTransform="translate(0 255.68) scale(1 -1)" gradientUnits="userSpaceOnUse">
      <stop offset="0" stop-color="#e0de2b"/>
      <stop offset=".99" stop-color="#65b344"/>
    </linearGradient>
    <linearGradient id="Degradado_sin_nombre_2" data-name="Degradado sin nombre 2" x1="267.06" y1="94.37" x2="267.06" y2="13.57" gradientTransform="translate(0 255.68) scale(1 -1)" gradientUnits="userSpaceOnUse">
      <stop offset="0" stop-color="#000"/>
      <stop offset="1" stop-color="#040405" stop-opacity="0"/>
    </linearGradient>
    <linearGradient id="Degradado_sin_nombre_3" data-name="Degradado sin nombre 3" x1="255.34" y1="170.93" x2="280.5" y2="197.53" gradientTransform="translate(0 255.68) scale(1 -1)" gradientUnits="userSpaceOnUse">
      <stop offset="0" stop-color="#2be"/>
      <stop offset="1" stop-color="#0b7cc0"/>
    </linearGradient>
    <clipPath id="clippath-1">
      <circle class="cls-2" cx="267.92" cy="71.45" r="18.31"/>
    </clipPath>
  </defs>
  <g id="Capa_1-2" data-name="Capa 1">
    <g>
      <g class="cls-1">
        <path class="cls-7" d="M30.6,327.6c-35.75-16.36-23.45-57.57,17.06-74.63,40.51-17.06,104.48-85.29,66.1-127.93S64.72,24.83,107.36-13.55c42.64-38.38,17.06-78.9,17.06-78.9h279.32s74.63,266.53,19.19,311.3c-55.44,44.78-83.16,49.04-130.07,25.59s-97.02-15.99-116.21,11.73-83.16,100.21-146.06,71.43h.01Z"/>
      </g>
      <g>
        <g>
          <g>
            <g>
              <rect class="cls-3" x="187.41" y="41.37" width="6.12" height="6.12"/>
              <path class="cls-3" d="M183.1,88.35h0c-1.69,0-3.06-1.37-3.06-3.06h0c0-1.69,1.37-3.06,3.06-3.06h0c1.69,0,3.06,1.37,3.06,3.06h0c0,1.69-1.37,3.06-3.06,3.06Z"/>
              <polygon class="cls-3" points="162.67 103.33 159.27 110.3 155.87 103.33 162.67 103.33"/>
              <rect class="cls-3" x="199.47" y="107.41" width="6.12" height="6.12"/>
              <g>
                <line class="cls-4" x1="164" y1="130.36" x2="170.12" y2="130.36"/>
                <line class="cls-4" x1="167.06" y1="127.3" x2="167.06" y2="133.43"/>
              </g>
              <rect class="cls-3" x="187.53" y="132.71" width="6.12" height="6.12"/>
              <path class="cls-3" d="M199.98,165.17h0c-1.69,0-3.06-1.37-3.06-3.06h0c0-1.69,1.37-3.06,3.06-3.06h0c1.69,0,3.06,1.37,3.06,3.06h0c0,1.69-1.37,3.06-3.06,3.06Z"/>
              <path class="cls-3" d="M144.46,77.57h0c-1.69,0-3.06-1.37-3.06-3.06h0c0-1.69,1.37-3.06,3.06-3.06h0c1.69,0,3.06,1.37,3.06,3.06h0c0,1.69-1.37,3.06-3.06,3.06Z"/>
              <circle class="cls-18" cx="200.38" cy="90.87" r=".84"/>
              <circle class="cls-18" cx="208.98" cy="37.38" r=".84"/>
              <circle class="cls-18" cx="177.73" cy="149.6" r=".84"/>
              <path class="cls-18" d="M162.21,168.27c.46,0,.84.38.84.84s-.38.84-.84.84-.84-.38-.84-.84.38-.84.84-.84Z"/>
              <circle class="cls-18" cx="193.88" cy="67.38" r=".84"/>
              <circle class="cls-18" cx="157.59" cy="47.66" r=".84"/>
              <circle class="cls-18" cx="182.76" cy="109.33" r=".84"/>
              <circle class="cls-18" cx="135.92" cy="103.25" r=".84"/>
              <circle class="cls-18" cx="207.72" cy="128" r=".84"/>
              <circle class="cls-18" cx="204.58" cy="189.46" r=".84"/>
            </g>
            <g>
              <path class="cls-3" d="M330.63,119.43h0c-1.69,0-3.06-1.37-3.06-3.06h0c0-1.69,1.37-3.06,3.06-3.06h0c1.69,0,3.06,1.37,3.06,3.06h0c0,1.69-1.37,3.06-3.06,3.06Z"/>
              <polygon class="cls-3" points="374.31 123.86 370.91 130.83 367.51 123.86 374.31 123.86"/>
              <rect class="cls-3" x="347" y="138.49" width="6.12" height="6.12"/>
              <g>
                <line class="cls-4" x1="369.17" y1="96.48" x2="363.04" y2="96.48"/>
                <line class="cls-4" x1="366.1" y1="99.54" x2="366.1" y2="93.42"/>
              </g>
              <rect class="cls-3" x="339.52" y="88.02" width="6.12" height="6.12"/>
              <path class="cls-3" d="M333.18,61.67h0c1.69,0,3.06,1.37,3.06,3.06h0c0,1.69-1.37,3.06-3.06,3.06h0c-1.69,0-3.06-1.37-3.06-3.06h0c0-1.69,1.37-3.06,3.06-3.06Z"/>
              <circle class="cls-18" cx="332.78" cy="135.97" r=".84"/>
              <circle class="cls-18" cx="324.18" cy="189.46" r=".84"/>
              <circle class="cls-18" cx="355.43" cy="77.24" r=".84"/>
              <circle class="cls-18" cx="370.96" cy="57.73" r=".84"/>
              <circle class="cls-18" cx="339.28" cy="159.46" r=".84"/>
              <circle class="cls-18" cx="370.4" cy="171.49" r=".84"/>
              <circle class="cls-18" cx="350.4" cy="117.51" r=".84"/>
              <circle class="cls-18" cx="325.44" cy="98.84" r=".84"/>
              <circle class="cls-18" cx="324.56" cy="47.66" r=".84"/>
              <g>
                <line class="cls-4" x1="324.37" y1="161.09" x2="318.25" y2="161.09"/>
                <line class="cls-4" x1="321.31" y1="164.15" x2="321.31" y2="158.03"/>
              </g>
            </g>
          </g>
          <g>
            <path class="cls-18" d="M215.26,73.13l-5.49-5.49v-7.01c0-3.69-2.99-6.67-6.67-6.67h-36.99c-3.69,0-6.67,2.99-6.67,6.67v28.68c0,3.69,2.99,6.67,6.67,6.67h36.99c3.69,0,6.67-2.99,6.67-6.67v-7.01l5.49-5.49c1.02-1.02,1.02-2.66,0-3.68h0Z"/>
            <g>
              <path class="cls-18" d="M319.18,97.84l5.49-5.49v-7.01c0-3.69,2.99-6.67,6.67-6.67h36.99c3.69,0,6.67,2.99,6.67,6.67v28.68c0,3.69-2.99,6.67-6.67,6.67h-36.99c-3.69,0-6.67-2.99-6.67-6.67v-7.01l-5.49-5.49c-1.02-1.02-1.02-2.66,0-3.68Z"/>
              <g>
                <circle class="cls-11" cx="349.56" cy="100.02" r="13.48"/>
                <g>
                  <polygon class="cls-18" points="356.22 100.35 353.55 103.01 350.89 103.01 348.56 105.34 348.56 103.01 345.56 103.01 345.56 93.03 356.22 93.03 356.22 100.35"/>
                  <g id="Layer_1-2" data-name="Layer 1-2">
                    <path class="cls-9" d="M344.9,91.69l-3.33,3.33v11.98h3.99v3.33l3.33-3.33h2.66l5.99-5.99v-9.32h-12.65.01ZM356.22,100.35l-2.66,2.66h-2.66l-2.33,2.33v-2.33h-3v-9.99h10.65v7.32h0Z"/>
                    <rect class="cls-9" x="352.89" y="95.36" width="1.33" height="3.99"/>
                    <rect class="cls-9" x="349.23" y="95.36" width="1.33" height="3.99"/>
                  </g>
                </g>
              </g>
            </g>
            <g>
              <path class="cls-18" d="M319.18,163.33l5.49-5.49v-7.01c0-3.69,2.99-6.67,6.67-6.67h36.99c3.69,0,6.67,2.99,6.67,6.67v28.68c0,3.69-2.99,6.67-6.67,6.67h-36.99c-3.69,0-6.67-2.99-6.67-6.67v-7.01l-5.49-5.49c-1.02-1.02-1.02-2.66,0-3.68Z"/>
              <path class="cls-8" d="M351.25,151.84c-7.5,0-13.56,6.11-13.56,13.66,0,6.04,3.88,11.15,9.27,12.96.67.14.92-.29.92-.66,0-.32-.02-1.4-.02-2.53-3.77.81-4.56-1.63-4.56-1.63-.61-1.58-1.5-1.99-1.5-1.99-1.23-.84.09-.84.09-.84,1.37.09,2.09,1.4,2.09,1.4,1.21,2.08,3.17,1.49,3.95,1.13.11-.88.47-1.49.85-1.83-3.01-.32-6.17-1.49-6.17-6.74,0-1.49.54-2.71,1.39-3.66-.13-.34-.61-1.74.13-3.62,0,0,1.15-.36,3.73,1.4,1.11-.3,2.25-.45,3.39-.45s2.31.16,3.39.45c2.58-1.76,3.73-1.4,3.73-1.4.74,1.88.27,3.28.13,3.62.88.95,1.39,2.17,1.39,3.66,0,5.25-3.17,6.4-6.2,6.74.49.43.92,1.24.92,2.53,0,1.83-.02,3.3-.02,3.75,0,.36.25.79.92.66,5.39-1.81,9.27-6.92,9.27-12.96.02-7.56-6.06-13.66-13.54-13.66h0Z"/>
            </g>
            <g>
              <circle class="cls-9" cx="186.06" cy="75.02" r="12.84"/>
              <g>
                <path class="cls-18" d="M192.61,80.89l-4.83-7.02-.55-.79-3.46-5.02-.29-.42h-4.25l1.04,1.5,4.59,6.68.55.79,3.69,5.36.29.42h4.25l-1.04-1.5h.01ZM189.9,81.44l-3.84-5.57-.55-.79-4.45-6.47h1.91l3.6,5.23.55.79,4.69,6.81h-1.91Z"/>
                <polygon class="cls-18" points="185.52 75.07 186.07 75.87 185.42 76.62 180.45 82.4 179.23 82.4 184.87 75.83 185.52 75.07"/>
                <polygon class="cls-18" points="193.13 67.64 187.78 73.88 187.13 74.63 186.58 73.84 187.23 73.08 190.86 68.86 191.91 67.64 193.13 67.64"/>
              </g>
            </g>
            <path class="cls-18" d="M215.26,139.71l-5.49-5.49v-7.01c0-3.69-2.99-6.67-6.67-6.67h-36.99c-3.69,0-6.67,2.99-6.67,6.67v28.68c0,3.69,2.99,6.67,6.67,6.67h36.99c3.69,0,6.67-2.99,6.67-6.67v-7.01l5.49-5.49c1.02-1.02,1.02-2.66,0-3.68Z"/>
            <g>
              <circle class="cls-9" cx="186.17" cy="142.51" r="13.7"/>
              <g>
                <path class="cls-18" d="M182.51,148.01s.03.03.05.04c.15.11.26.26.41.38.45.36.96.56,1.54.59,1.38.09,2.58-.95,2.73-2.31v-12.5c0-.19.09-.28.28-.28h1.87c.06,0,.12,0,.17.03h0s.04.07.05.11c.24,1.1.82,1.99,1.73,2.65.06.04.1.09.16.14.04.03.08.07.12.1.15.08.25.22.38.32.5.42,1.07.71,1.71.87.06,0,.12,0,.16.07h0s.03.09.03.14v2.17c0,.17-.02.17-.19.17-.53,0-1.05-.07-1.56-.19-.88-.2-1.7-.56-2.46-1.06-.04-.03-.08-.08-.12-.06-.05.02-.03.09-.03.14v6.1c0,1.42-.46,2.7-1.39,3.78-.99,1.15-2.25,1.82-3.75,2-1.16.14-2.27-.07-3.31-.59-.17-.08-.33-.18-.48-.3-.05-.04-.1-.08-.14-.13-.36-.3-.61-.68-.85-1.08-.36-.61-.6-1.27-.71-1.97-.07-.4-.1-.8-.08-1.21.07-1.3.51-2.47,1.35-3.47.7-.84,1.58-1.43,2.62-1.79.43-.15.88-.24,1.34-.27.08,0,.17-.03.25-.02.04,0,.08,0,.12.03h0s.02.09.02.13v2.28c0,.07-.04.1-.11.08-.2-.06-.41-.08-.61-.09-.32-.02-.64.03-.94.14-1.01.37-1.62,1.09-1.75,2.16-.13,1.05.29,1.89,1.16,2.49.07.05.15.1.22.15l-.02.06Z"/>
                <path class="cls-15" d="M180.62,150.57s.06.02.09.04c.66.4,1.36.66,2.12.78.38.06.77.09,1.15.07,1.29-.07,2.44-.5,3.44-1.32.96-.79,1.6-1.8,1.92-3,.1-.38.16-.77.18-1.16,0-.23,0-.45,0-.68v-5.95c.05,0,.07.02.1.04.69.47,1.44.82,2.24,1.04.44.12.89.2,1.35.24.19.02.39,0,.58.03.08,0,.09,0,.09-.09v-2.37c.17.02.34.06.52.07.11,0,.21.02.32,0,.05,0,.08.02.07.07v2.98q0,.08-.09.08c-.3,0-.59-.02-.89-.06-.6-.08-1.18-.23-1.75-.45-.54-.21-1.05-.48-1.53-.81-.03-.02-.06-.04-.11-.07v6.35c0,1.1-.29,2.13-.88,3.07-.71,1.13-1.7,1.93-2.95,2.38-.76.28-1.55.38-2.36.32-1.37-.1-2.55-.62-3.55-1.55-.03-.02-.05-.05-.07-.08v.02Z"/>
                <path class="cls-13" d="M189.56,133.96h-2.12c-.1,0-.15.05-.15.15v12.23c0,.28-.02.56-.11.83-.31.95-.95,1.58-1.93,1.81-1.05.24-1.94-.08-2.65-.89,0,0-.02-.03-.03-.05.2.08.41.16.62.2.68.14,1.33.03,1.92-.34.69-.42,1.09-1.04,1.23-1.83.03-.15.03-.3.03-.45v-12.26c0-.19-.03-.17.16-.17h2.9q.1,0,.1.1c0,.22,0,.44.04.65v.02Z"/>
                <path class="cls-13" d="M184.52,140.67c-.58.02-1.14.11-1.69.29-.79.26-1.49.67-2.11,1.24-.8.74-1.35,1.64-1.65,2.69-.11.37-.17.76-.2,1.15-.02.23-.02.47,0,.7.03.65.17,1.27.41,1.87.27.67.66,1.27,1.16,1.8,0,0,.02.02.02.04-.11-.05-.21-.13-.3-.21-.93-.74-1.59-1.67-1.96-2.81-.13-.4-.2-.8-.24-1.22-.03-.3-.03-.6,0-.9.05-.69.21-1.35.49-1.98.3-.66.7-1.24,1.22-1.75.6-.59,1.3-1.03,2.09-1.32.5-.18,1.01-.29,1.54-.33.38-.03.76-.02,1.14.03.05,0,.08.02.08.08v.63h0Z"/>
                <path class="cls-15" d="M182.51,148.01c-.23-.1-.43-.26-.61-.43-.46-.44-.73-.98-.8-1.61-.15-1.32.69-2.46,1.84-2.82.49-.15.99-.16,1.49-.02.03,0,.06.02.09,0,.02-.04,0-.08,0-.12v-2.34c.29-.02.57,0,.85.04.04,0,.06.03.06.06v3.02s0,.07,0,.11c-.13-.02-.26-.06-.39-.08-.76-.11-1.44.07-2.04.54-.53.42-.85.96-.96,1.63-.12.7.03,1.35.43,1.94.02.02.03.05.05.07Z"/>
                <path class="cls-15" d="M191.51,136.87c-.29-.17-.54-.38-.77-.62-.62-.64-1.01-1.39-1.17-2.26v-.02c.27-.02.53,0,.8,0,.05,0,.07.02.06.07v.06c0,.75.21,1.43.57,2.07.13.23.29.44.46.64.02.02.05.04.05.07h0Z"/>
                <path class="cls-13" d="M193.88,138.24c-.76-.16-1.43-.5-2.01-1.02-.09-.08-.17-.15-.24-.24.03,0,.05,0,.07.03.46.26.95.44,1.48.52.2.03.41.06.62.05q.09,0,.09.08v.58h0Z"/>
              </g>
            </g>
          </g>
        </g>
        <g>
          <g>
            <g>
              <path class="cls-6" d="M323.18,298.56h-112.23c-7.28,0-11.93-4.24-10.44-9.27l28.78-96.92c.46-1.56,3.98-2.8,7.86-2.8h59.81c3.88,0,7.4,1.24,7.86,2.8l28.78,96.92c1.49,5.03-3.15,9.27-10.44,9.27h.02Z"/>
              <g>
                <g>
                  <rect class="cls-14" x="220.46" y="31.77" width="93.23" height="187.88" rx="5.29" ry="5.29"/>
                  <rect class="cls-14" x="222.95" y="36.08" width="88.24" height="177.84" rx="5" ry="5"/>
                  <rect class="cls-14" x="224.62" y="37.76" width="84.89" height="174.49" rx="4.46" ry="4.46"/>
                  <path class="cls-14" d="M280.98,42.77h-27.82c-6.07,0-11-4.92-11-11h49.81c0,6.07-4.92,11-11,11h.01Z"/>
                  <circle class="cls-14" cx="267.07" cy="38.23" r="1.43"/>
                </g>
                <rect class="cls-18" x="226.4" y="164.35" width="81.24" height="15.01" rx="6.22" ry="6.22"/>
                <rect class="cls-18" x="226.4" y="185.3" width="81.24" height="15.28" rx="6.22" ry="6.22"/>
                <g>
                  <circle class="cls-9" cx="237.71" cy="171.57" r="4.72"/>
                  <g>
                    <path class="cls-18" d="M240.12,173.73l-1.78-2.58-.2-.29-1.27-1.85-.11-.15h-1.56l.38.55,1.69,2.46.2.29,1.36,1.97.11.15h1.56l-.38-.55h0ZM239.12,173.93l-1.41-2.05-.2-.29-1.64-2.38h.7l1.32,1.92.2.29,1.72,2.51h-.7,0Z"/>
                    <polygon class="cls-18" points="237.51 171.58 237.71 171.88 237.47 172.15 235.64 174.28 235.19 174.28 237.27 171.86 237.51 171.58"/>
                    <polygon class="cls-18" points="240.31 168.85 238.34 171.14 238.1 171.42 237.9 171.13 238.14 170.85 239.47 169.3 239.86 168.85 240.31 168.85"/>
                  </g>
                </g>
                <g>
                  <circle class="cls-9" cx="237.71" cy="192.94" r="5.21"/>
                  <g>
                    <path class="cls-18" d="M236.32,195.03s0,.01.02.02c.06.04.1.1.15.14.17.14.36.21.58.23.52.03.98-.36,1.04-.88v-4.75c0-.07.03-.11.1-.11h.78s0,.03.02.04c.09.42.31.75.66,1.01.02.02.04.04.06.05.02.01.03.03.05.04.06.03.1.08.14.12.19.16.41.27.65.33.02,0,.05,0,.06.03h0s0,.03,0,.05v.82c0,.06,0,.07-.07.07-.2,0-.4-.03-.59-.07-.34-.08-.65-.21-.93-.4,0,0-.03-.03-.05-.02-.02,0,0,.04,0,.05v2.32c0,.54-.18,1.02-.53,1.44-.38.44-.85.69-1.43.76-.44.05-.86-.03-1.26-.22-.06-.03-.13-.07-.18-.11-.02-.02-.04-.03-.05-.05-.14-.11-.23-.26-.32-.41-.14-.23-.23-.48-.27-.75-.02-.15-.04-.3-.03-.46.03-.5.19-.94.51-1.32.27-.32.6-.54,1-.68.16-.06.33-.09.51-.1h.1s.03,0,.04.01h0v.92s-.02.04-.04.03c-.08-.02-.15-.03-.23-.04-.12,0-.24.01-.36.05-.38.14-.62.42-.66.82-.05.4.11.72.44.95.03.02.06.04.08.06h0Z"/>
                    <path class="cls-15" d="M235.6,196s.02,0,.03.01c.25.15.52.25.81.3.14.02.29.03.44.03.49-.03.93-.19,1.31-.5.37-.3.61-.68.73-1.14.04-.14.06-.29.07-.44v-2.52s.03,0,.04.02c.26.18.55.31.85.4.17.05.34.08.51.09.07,0,.15,0,.22.01t.03-.03v-.91c.07,0,.13.02.2.03h.12s.03,0,.03.03v1.13s0,.03-.03.03c-.11,0-.23,0-.34-.02-.23-.03-.45-.09-.67-.17-.21-.08-.4-.18-.58-.31,0,0-.02-.01-.04-.03v2.41c0,.42-.11.81-.33,1.17-.27.43-.65.73-1.12.91-.29.11-.59.15-.9.12-.52-.04-.97-.24-1.35-.59,0,0-.02-.02-.03-.03h0Z"/>
                    <path class="cls-13" d="M239,189.69h-.81s-.06.02-.06.06v4.65c0,.11,0,.21-.04.32-.12.36-.36.6-.73.69-.4.09-.74-.03-1.01-.34,0,0,0-.01,0-.02.08.03.15.06.24.08.26.05.5.01.73-.13.26-.16.41-.4.47-.7,0-.06,0-.11,0-.17v-4.66c0-.07,0-.06.06-.06h1.1s.04,0,.04.04c0,.08,0,.17,0,.25h0Z"/>
                    <path class="cls-13" d="M237.08,192.24c-.22,0-.43.04-.64.11-.3.1-.57.26-.8.47-.31.28-.51.62-.63,1.02-.04.14-.06.29-.07.44v.27c0,.25.06.48.16.71.1.26.25.48.44.68h0s-.08-.04-.11-.07c-.36-.28-.61-.64-.74-1.07-.05-.15-.08-.3-.09-.46,0-.11,0-.23,0-.34.02-.26.08-.51.19-.75.11-.25.27-.47.46-.67.23-.22.49-.39.79-.5.19-.07.38-.11.58-.12.15-.01.29,0,.43,0,.02,0,.03,0,.03.03v.24h0Z"/>
                    <path class="cls-15" d="M236.32,195.03c-.09-.04-.16-.1-.23-.16-.17-.17-.28-.37-.3-.61-.06-.5.26-.94.7-1.07.19-.06.38-.06.57,0h.03v-.95c.11,0,.22,0,.32.01t.02.02v1.19c-.05,0-.1-.02-.15-.03-.29-.04-.55.03-.78.21-.2.16-.32.37-.37.62-.04.27,0,.51.16.74,0,0,0,.02.02.03h0Z"/>
                    <path class="cls-15" d="M239.74,190.8c-.11-.06-.2-.15-.29-.24-.23-.24-.38-.53-.45-.86h.3s.03,0,.02.02v.02c0,.28.08.54.22.79.05.09.11.17.17.24,0,0,.02.02.02.03h0Z"/>
                    <path class="cls-13" d="M240.64,191.32c-.29-.06-.54-.19-.76-.39-.03-.03-.07-.06-.09-.09,0,0,.02,0,.03.01.17.1.36.17.56.2.08.01.16.02.23.02t.03.03v.22Z"/>
                  </g>
                </g>
                <rect class="cls-18" x="226.45" y="144.21" width="81.24" height="15.01" rx="6.22" ry="6.22"/>
                <rect class="cls-18" x="226.45" y="123.22" width="81.24" height="15.01" rx="6.22" ry="6.22"/>
                <rect class="cls-18" x="226.45" y="102.4" width="81.24" height="15.01" rx="6.22" ry="6.22"/>
                <g>
                  <circle class="cls-10" cx="237.28" cy="151.71" r="5.08"/>
                  <g>
                    <path class="cls-17" d="M237.68,151.02c.08-.09.15-.19.24-.27.26-.25.57-.37.94-.37.2,0,.4.02.59.07.44.13.7.43.82.86.09.32.11.65.11.99v2.1c0,.07-.02.08-.08.08h-1.08c-.06,0-.08-.02-.08-.08v-2c0-.17,0-.33-.06-.5-.09-.3-.3-.45-.61-.44-.43.02-.65.23-.71.67,0,.1-.02.21-.02.31v1.95c0,.06-.02.08-.08.08h-1.09c-.06,0-.08-.02-.08-.07v-3.85c0-.06.02-.08.08-.08h1.04c.06,0,.08.02.08.08v.46h0Z"/>
                    <path class="cls-17" d="M235.7,152.49v1.91c0,.07-.02.09-.09.09h-1.08c-.06,0-.08,0-.08-.07v-3.86c0-.05,0-.07.07-.07h1.1c.07,0,.08.03.08.09v1.92h0Z"/>
                    <path class="cls-17" d="M235.8,149.2c0,.4-.32.72-.72.72s-.72-.33-.72-.72.33-.72.72-.72.72.32.72.72Z"/>
                  </g>
                </g>
                <g>
                  <path class="cls-12" d="M241.97,130.69c0-2.73-2.21-4.94-4.94-4.94s-4.94,2.21-4.94,4.94c0,2.47,1.81,4.51,4.17,4.88v-3.45h-1.26v-1.43h1.26v-1.09c0-1.24.74-1.92,1.87-1.92.54,0,1.11.1,1.11.1v1.22h-.62c-.61,0-.81.38-.81.77v.93h1.37l-.22,1.43h-1.15v3.45c2.36-.37,4.17-2.42,4.17-4.88h0Z"/>
                  <path class="cls-18" d="M238.95,132.12l.22-1.43h-1.37v-.93c0-.39.19-.77.81-.77h.62v-1.22s-.57-.1-1.11-.1c-1.13,0-1.87.68-1.87,1.92v1.09h-1.26v1.43h1.26v3.45c.25.04.51.06.77.06s.52-.02.77-.06v-3.45h1.16Z"/>
                </g>
                <g>
                  <circle class="cls-16" cx="237.02" cy="109.9" r="5.34"/>
                  <path class="cls-18" d="M240.43,108.19c-.08-.31-.32-.55-.63-.63-.55-.15-2.78-.15-2.78-.15,0,0-2.23,0-2.78.15-.31.08-.55.32-.63.63-.15.55-.15,1.71-.15,1.71,0,0,0,1.16.15,1.71.08.31.32.55.63.63.55.15,2.78.15,2.78.15,0,0,2.23,0,2.78-.15.31-.08.55-.32.63-.63.15-.55.15-1.71.15-1.71,0,0,0-1.16-.15-1.71ZM236.31,110.97v-2.13l1.85,1.07-1.85,1.07h0Z"/>
                </g>
              </g>
            </g>
            <g class="cls-20">
              <path class="cls-18" d="M311.19,67.18l-88.24,107.21v31.14s0,.08,0,.12l88.23-107.19v-31.28Z"/>
              <path class="cls-18" d="M222.95,162.35l88.24-107.21v-10.67c0-1.96-.7-3.74-1.82-5.16l-86.42,104.99v18.05Z"/>
            </g>
          </g>
          <g>
            <circle class="cls-5" cx="267.92" cy="71.45" r="18.31"/>
            <g class="cls-19">
              <g>
                <path class="cls-18" d="M275.48,67.27c0,4.17-3.38,7.55-7.55,7.55s-7.55-3.38-7.55-7.55,3.38-7.55,7.55-7.55,7.55,3.38,7.55,7.55Z"/>
                <ellipse class="cls-18" cx="267.92" cy="85.85" rx="11.29" ry="12.62"/>
              </g>
            </g>
          </g>
        </g>
      </g>
    </g>
  </g>
</svg>