<?xml version="1.0" standalone="no"?>
<!DOCTYPE svg PUBLIC "-//W3C//DTD SVG 20010904//EN"
 "http://www.w3.org/TR/2001/REC-SVG-20010904/DTD/svg10.dtd">
<svg version="1.0" xmlns="http://www.w3.org/2000/svg"
 width="493.000000pt" height="100.000000pt" viewBox="0 0 493.000000 100.000000"
 preserveAspectRatio="xMidYMid meet">

<g transform="translate(0.000000,100.000000) scale(0.100000,-0.100000)"
fill="#000000" stroke="none">
<path d="M1416 562 c-3 -6 21 -20 54 -32 71 -27 80 -37 51 -59 -29 -22 -18
-31 39 -31 26 0 67 -6 91 -13 24 -7 55 -11 69 -7 22 5 25 12 28 54 3 51 -10
78 -34 69 -8 -3 -20 -1 -27 5 -7 6 -58 10 -117 10 -58 -1 -115 2 -127 6 -12 4
-24 3 -27 -2z"/>
<path d="M550 472 l-35 -16 30 -3 c17 -2 42 0 55 5 23 9 24 9 4 20 -14 8 -28
6 -54 -6z"/>
<path d="M1030 370 c-7 -16 -16 -28 -20 -25 -20 12 -110 -173 -110 -227 0 -30
73 -25 99 8 20 25 77 182 69 190 -3 2 -11 -15 -19 -38 -16 -50 -39 -98 -39
-82 0 6 9 53 20 105 20 99 21 119 0 69z"/>
</g>
</svg>
